<svg width="20" height="20" viewBox="0 0 20 20" fill="none" xmlns="http://www.w3.org/2000/svg">
<path d="M1.66699 8.12435C1.32533 8.12435 1.04199 7.84102 1.04199 7.49935V5.41602C1.04199 2.99935 3.00866 1.04102 5.41699 1.04102H7.50033C7.84199 1.04102 8.12533 1.32435 8.12533 1.66602C8.12533 2.00768 7.84199 2.29102 7.50033 2.29102H5.41699C3.69199 2.29102 2.29199 3.69102 2.29199 5.41602V7.49935C2.29199 7.84102 2.00866 8.12435 1.66699 8.12435Z" fill="#2E3D5B"/>
<path d="M18.3333 8.12435C17.9917 8.12435 17.7083 7.84102 17.7083 7.49935V5.41602C17.7083 3.69102 16.3083 2.29102 14.5833 2.29102H12.5C12.1583 2.29102 11.875 2.00768 11.875 1.66602C11.875 1.32435 12.1583 1.04102 12.5 1.04102H14.5833C16.9917 1.04102 18.9583 2.99935 18.9583 5.41602V7.49935C18.9583 7.84102 18.675 8.12435 18.3333 8.12435Z" fill="#2E3D5B"/>
<path d="M14.583 18.959H13.333C12.9913 18.959 12.708 18.6757 12.708 18.334C12.708 17.9923 12.9913 17.709 13.333 17.709H14.583C16.308 17.709 17.708 16.309 17.708 14.584V13.334C17.708 12.9923 17.9913 12.709 18.333 12.709C18.6747 12.709 18.958 12.9923 18.958 13.334V14.584C18.958 17.0007 16.9913 18.959 14.583 18.959Z" fill="#2E3D5B"/>
<path d="M7.50033 18.9583H5.41699C3.00866 18.9583 1.04199 17 1.04199 14.5833V12.5C1.04199 12.1583 1.32533 11.875 1.66699 11.875C2.00866 11.875 2.29199 12.1583 2.29199 12.5V14.5833C2.29199 16.3083 3.69199 17.7083 5.41699 17.7083H7.50033C7.84199 17.7083 8.12533 17.9917 8.12533 18.3333C8.12533 18.675 7.84199 18.9583 7.50033 18.9583Z" fill="#2E3D5B"/>
<path d="M11.6663 15.2077H8.33301C6.31634 15.2077 5.20801 14.0993 5.20801 12.0827V7.91602C5.20801 5.89935 6.31634 4.79102 8.33301 4.79102H11.6663C13.683 4.79102 14.7913 5.89935 14.7913 7.91602V12.0827C14.7913 14.0993 13.683 15.2077 11.6663 15.2077ZM8.33301 6.04102C7.01634 6.04102 6.45801 6.59935 6.45801 7.91602V12.0827C6.45801 13.3993 7.01634 13.9577 8.33301 13.9577H11.6663C12.983 13.9577 13.5413 13.3993 13.5413 12.0827V7.91602C13.5413 6.59935 12.983 6.04102 11.6663 6.04102H8.33301Z" fill="#2E3D5B"/>
<path d="M15.8337 10.625H4.16699C3.82533 10.625 3.54199 10.3417 3.54199 10C3.54199 9.65833 3.82533 9.375 4.16699 9.375H15.8337C16.1753 9.375 16.4587 9.65833 16.4587 10C16.4587 10.3417 16.1753 10.625 15.8337 10.625Z" fill="#2E3D5B"/>
</svg>
