<svg width="64" height="64" viewBox="0 0 64 64" fill="none" xmlns="http://www.w3.org/2000/svg">
<path d="M0 32C0 14.3269 14.3269 0 32 0C49.6731 0 64 14.3269 64 32C64 49.6731 49.6731 64 32 64C14.3269 64 0 49.6731 0 32Z" fill="#EAF9F0"/>
<path d="M32.0003 8.66602C19.1437 8.66602 8.66699 19.1427 8.66699 31.9994C8.66699 44.856 19.1437 55.3327 32.0003 55.3327C44.857 55.3327 55.3337 44.856 55.3337 31.9994C55.3337 19.1427 44.857 8.66602 32.0003 8.66602ZM43.1537 26.6327L29.9237 39.8627C29.597 40.1894 29.1537 40.376 28.687 40.376C28.2203 40.376 27.777 40.1894 27.4503 39.8627L20.847 33.2593C20.1703 32.5827 20.1703 31.4627 20.847 30.786C21.5237 30.1094 22.6437 30.1094 23.3203 30.786L28.687 36.1527L40.6803 24.1594C41.357 23.4827 42.477 23.4827 43.1537 24.1594C43.8303 24.836 43.8303 25.9327 43.1537 26.6327Z" fill="#2ECC71"/>
</svg>
