<svg width="32" height="32" viewBox="0 0 32 32" fill="none" xmlns="http://www.w3.org/2000/svg">
<path d="M16.0003 2.66797C8.65366 2.66797 2.66699 8.65463 2.66699 16.0013C2.66699 23.348 8.65366 29.3346 16.0003 29.3346C23.347 29.3346 29.3337 23.348 29.3337 16.0013C29.3337 8.65463 23.347 2.66797 16.0003 2.66797ZM21.8003 20.7613C21.6137 21.0813 21.2803 21.2546 20.9337 21.2546C20.7603 21.2546 20.587 21.2146 20.427 21.108L16.2937 18.6413C15.267 18.028 14.507 16.6813 14.507 15.4946V10.028C14.507 9.4813 14.9603 9.02797 15.507 9.02797C16.0537 9.02797 16.507 9.4813 16.507 10.028V15.4946C16.507 15.9746 16.907 16.6813 17.3203 16.9213L21.4537 19.388C21.9337 19.668 22.0937 20.2813 21.8003 20.7613Z" fill="#FF9B29"/>
</svg>
