<svg width="48" height="48" viewBox="0 0 48 48" fill="none" xmlns="http://www.w3.org/2000/svg">
<path d="M21.5991 44.2008C21.0191 44.2008 20.4391 44.1008 19.8991 43.9008C17.3991 43.0808 15.7991 40.3208 16.3591 37.7608L17.3391 31.4608C17.3591 31.3208 17.3591 31.1208 17.2191 30.9608C17.1191 30.8608 16.9791 30.8008 16.8191 30.8008H8.8191C6.8591 30.8008 5.1591 29.9808 4.1591 28.5608C3.1791 27.1808 2.9791 25.3608 3.6191 23.6008L8.3991 9.04078C9.1391 6.14078 12.2391 3.80078 15.4391 3.80078H23.0391C24.1591 3.80078 26.5991 4.14078 27.8991 5.44078L33.9591 10.1208L32.1191 12.5008L25.9191 7.70078C25.4191 7.20078 24.1591 6.80078 23.0391 6.80078H15.4391C13.6391 6.80078 11.6991 8.24078 11.2991 9.86078L6.4591 24.5608C6.1391 25.4408 6.1991 26.2408 6.6191 26.8208C7.0591 27.4408 7.8591 27.8008 8.8391 27.8008H16.8391C17.8791 27.8008 18.8391 28.2408 19.4991 29.0008C20.1791 29.7808 20.4791 30.8208 20.3191 31.9008L19.3191 38.3208C19.0791 39.4408 19.8391 40.7008 20.9191 41.0608C21.8791 41.4208 23.1591 40.9008 23.5991 40.2608L31.7991 28.0608L34.2791 29.7408L26.0791 41.9408C25.1391 43.3408 23.3591 44.2008 21.5991 44.2008Z" fill="#B9C6E2"/>
<path d="M39.2402 36.2H37.2402C33.5402 36.2 31.7402 34.46 31.7402 30.9V11.3C31.7402 7.74 33.5402 6 37.2402 6H39.2402C42.9402 6 44.7402 7.74 44.7402 11.3V30.9C44.7402 34.46 42.9402 36.2 39.2402 36.2ZM37.2402 9C35.0602 9 34.7402 9.52 34.7402 11.3V30.9C34.7402 32.68 35.0602 33.2 37.2402 33.2H39.2402C41.4202 33.2 41.7402 32.68 41.7402 30.9V11.3C41.7402 9.52 41.4202 9 39.2402 9H37.2402Z" fill="#B9C6E2"/>
</svg>
