<svg width="48" height="48" viewBox="0 0 48 48" fill="none" xmlns="http://www.w3.org/2000/svg">
<path d="M32.5607 44.201H24.9607C23.8407 44.201 21.4007 43.861 20.1007 42.561L14.0407 37.881L15.8807 35.501L22.0807 40.301C22.5807 40.781 23.8407 41.181 24.9607 41.181H32.5607C34.3607 41.181 36.3007 39.741 36.7007 38.121L41.5407 23.421C41.8607 22.541 41.8007 21.741 41.3807 21.161C40.9407 20.541 40.1407 20.181 39.1607 20.181H31.1607C30.1207 20.181 29.1607 19.741 28.5007 18.981C27.8207 18.201 27.5207 17.161 27.6807 16.081L28.6807 9.66096C28.9207 8.54096 28.1607 7.28096 27.0807 6.92096C26.1007 6.56096 24.8407 7.08096 24.4007 7.72096L16.2007 19.921L13.7207 18.261L21.9207 6.06096C23.1807 4.18096 25.9407 3.28096 28.1007 4.10096C30.6007 4.92096 32.2007 7.68096 31.6407 10.241L30.6607 16.541C30.6407 16.681 30.6407 16.881 30.7807 17.041C30.8807 17.141 31.0207 17.201 31.1807 17.201H39.1807C41.1407 17.201 42.8407 18.021 43.8407 19.441C44.8207 20.821 45.0207 22.641 44.3807 24.401L39.6007 38.961C38.8607 41.861 35.7807 44.201 32.5607 44.201Z" fill="#B9C6E2"/>
<path d="M10.7598 42.0008H8.75977C5.05977 42.0008 3.25977 40.2608 3.25977 36.7008V17.1008C3.25977 13.5408 5.05977 11.8008 8.75977 11.8008H10.7598C14.4598 11.8008 16.2598 13.5408 16.2598 17.1008V36.7008C16.2598 40.2608 14.4598 42.0008 10.7598 42.0008ZM8.75977 14.8008C6.57977 14.8008 6.25977 15.3208 6.25977 17.1008V36.7008C6.25977 38.4808 6.57977 39.0008 8.75977 39.0008H10.7598C12.9398 39.0008 13.2598 38.4808 13.2598 36.7008V17.1008C13.2598 15.3208 12.9398 14.8008 10.7598 14.8008H8.75977Z" fill="#B9C6E2"/>
</svg>
