<svg width="32" height="32" viewBox="0 0 32 32" fill="none" xmlns="http://www.w3.org/2000/svg">
<path d="M16.0005 23.1318C17.2008 23.1318 18.1738 22.1588 18.1738 20.9585C18.1738 19.7582 17.2008 18.7852 16.0005 18.7852C14.8002 18.7852 13.8271 19.7582 13.8271 20.9585C13.8271 22.1588 14.8002 23.1318 16.0005 23.1318Z" fill="#FF9B29"/>
<path d="M24.3737 12.708V11.0413C24.3737 7.4413 23.507 2.66797 16.0003 2.66797C8.49366 2.66797 7.62699 7.4413 7.62699 11.0413V12.708C3.89366 13.1746 2.66699 15.068 2.66699 19.7213V22.2013C2.66699 27.668 4.33366 29.3346 9.80032 29.3346H22.2003C27.667 29.3346 29.3337 27.668 29.3337 22.2013V19.7213C29.3337 15.068 28.107 13.1746 24.3737 12.708ZM16.0003 24.988C13.7737 24.988 11.9737 23.1746 11.9737 20.9613C11.9737 18.7346 13.787 16.9346 16.0003 16.9346C18.2137 16.9346 20.027 18.748 20.027 20.9613C20.027 23.188 18.227 24.988 16.0003 24.988ZM9.80032 12.588C9.69366 12.588 9.60032 12.588 9.49366 12.588V11.0413C9.49366 7.13463 10.6003 4.53464 16.0003 4.53464C21.4003 4.53464 22.507 7.13463 22.507 11.0413V12.6013C22.4003 12.6013 22.307 12.6013 22.2003 12.6013H9.80032V12.588Z" fill="#FF9B29"/>
</svg>
