<svg width="16" height="16" viewBox="0 0 16 16" fill="none" xmlns="http://www.w3.org/2000/svg">
<path d="M7.99967 15.2054C7.53967 15.2054 7.10634 14.972 6.79967 14.5654L5.79967 13.232C5.77967 13.2054 5.69967 13.172 5.66634 13.1654H5.33301C2.55301 13.1654 0.833008 12.412 0.833008 8.66536V5.33203C0.833008 2.38536 2.38634 0.832031 5.33301 0.832031H10.6663C13.613 0.832031 15.1663 2.38536 15.1663 5.33203V8.66536C15.1663 11.612 13.613 13.1654 10.6663 13.1654H10.333C10.2797 13.1654 10.233 13.192 10.1997 13.232L9.19967 14.5654C8.89301 14.972 8.45967 15.2054 7.99967 15.2054ZM5.33301 1.83203C2.94634 1.83203 1.83301 2.94536 1.83301 5.33203V8.66536C1.83301 11.6787 2.86634 12.1654 5.33301 12.1654H5.66634C6.00634 12.1654 6.39301 12.3587 6.59967 12.632L7.59967 13.9654C7.83301 14.272 8.16634 14.272 8.39967 13.9654L9.39967 12.632C9.61967 12.3387 9.96634 12.1654 10.333 12.1654H10.6663C13.053 12.1654 14.1663 11.052 14.1663 8.66536V5.33203C14.1663 2.94536 13.053 1.83203 10.6663 1.83203H5.33301Z" fill="#1D5DE5"/>
<path d="M11.3337 5.83203H4.66699C4.39366 5.83203 4.16699 5.60536 4.16699 5.33203C4.16699 5.0587 4.39366 4.83203 4.66699 4.83203H11.3337C11.607 4.83203 11.8337 5.0587 11.8337 5.33203C11.8337 5.60536 11.607 5.83203 11.3337 5.83203Z" fill="#1D5DE5"/>
<path d="M8.66699 9.16797H4.66699C4.39366 9.16797 4.16699 8.9413 4.16699 8.66797C4.16699 8.39464 4.39366 8.16797 4.66699 8.16797H8.66699C8.94033 8.16797 9.16699 8.39464 9.16699 8.66797C9.16699 8.9413 8.94033 9.16797 8.66699 9.16797Z" fill="#1D5DE5"/>
</svg>
