<svg width="32" height="32" viewBox="0 0 32 32" fill="none" xmlns="http://www.w3.org/2000/svg">
<path d="M16.904 26.6093C17.2704 26.6945 17.3039 27.1743 16.9471 27.2932L14.8405 27.9866C9.54712 29.6932 6.76046 28.2666 5.04046 22.9732L3.33379 17.7066C1.62712 12.4132 3.04045 9.61323 8.33379 7.90656L9.37112 7.56303C9.77398 7.42961 10.1617 7.832 10.0393 8.23834C9.92722 8.6103 9.82211 9.00638 9.72045 9.42656L8.41379 15.0132C6.94712 21.2932 9.09379 24.7599 15.3738 26.2532L16.904 26.6093Z" fill="#FF9B29"/>
<path d="M22.8929 4.28066L20.6663 3.76066C16.2129 2.70733 13.5596 3.57399 11.9996 6.80066C11.5996 7.614 11.2796 8.60066 11.0129 9.734L9.70626 15.3207C8.39959 20.894 10.1196 23.6407 15.6796 24.9607L17.9196 25.494C18.6929 25.6807 19.4129 25.8007 20.0796 25.854C24.2396 26.254 26.4529 24.3073 27.5729 19.494L28.8796 13.9207C30.1863 8.34733 28.4796 5.58733 22.8929 4.28066ZM20.3863 17.774C20.2663 18.2273 19.8663 18.5207 19.4129 18.5207C19.3329 18.5207 19.2529 18.5073 19.1596 18.494L15.2796 17.5073C14.7463 17.374 14.4263 16.8273 14.5596 16.294C14.6929 15.7607 15.2396 15.4407 15.7729 15.574L19.6529 16.5607C20.1996 16.694 20.5196 17.2407 20.3863 17.774ZM24.2929 13.2673C24.1729 13.7207 23.7729 14.014 23.3196 14.014C23.2396 14.014 23.1596 14.0007 23.0663 13.9873L16.5996 12.3473C16.0663 12.214 15.7463 11.6673 15.8796 11.134C16.0129 10.6007 16.5596 10.2807 17.0929 10.414L23.5596 12.054C24.1063 12.174 24.4263 12.7207 24.2929 13.2673Z" fill="#FF9B29"/>
</svg>
