<svg width="24" height="24" viewBox="0 0 24 24" fill="none" xmlns="http://www.w3.org/2000/svg">
<path d="M12 20.5H7C4 20.5 2 19 2 15.5V8.5C2 5 4 3.5 7 3.5H17C20 3.5 22 5 22 8.5V11.5" stroke="#1D5DE5" stroke-width="1.5" stroke-miterlimit="10" stroke-linecap="round" stroke-linejoin="round"/>
<path d="M17 9L13.87 11.5C12.84 12.32 11.15 12.32 10.12 11.5L7 9" stroke="#1D5DE5" stroke-width="1.5" stroke-miterlimit="10" stroke-linecap="round" stroke-linejoin="round"/>
<path d="M19.21 14.7683L15.6701 18.3083C15.5301 18.4483 15.4 18.7083 15.37 18.8983L15.18 20.2483C15.11 20.7383 15.45 21.0783 15.94 21.0083L17.29 20.8183C17.48 20.7883 17.75 20.6583 17.88 20.5183L21.4201 16.9783C22.0301 16.3683 22.3201 15.6583 21.4201 14.7583C20.5301 13.8683 19.82 14.1583 19.21 14.7683Z" stroke="#1D5DE5" stroke-width="1.5" stroke-miterlimit="10" stroke-linecap="round" stroke-linejoin="round"/>
<path d="M18.7002 15.2773C19.0002 16.3573 19.8402 17.1973 20.9202 17.4973" stroke="#1D5DE5" stroke-width="1.5" stroke-miterlimit="10" stroke-linecap="round" stroke-linejoin="round"/>
</svg>
