<svg width="24" height="24" viewBox="0 0 24 24" fill="none" xmlns="http://www.w3.org/2000/svg">
<path d="M9 22H15C20 22 22 20 22 15V9C22 4 20 2 15 2H9C4 2 2 4 2 9V15C2 20 4 22 9 22Z" stroke="#1D5DE5" stroke-width="1.5" stroke-linecap="round" stroke-linejoin="round"/>
<path d="M18.3801 15.2712V7.58121C18.3801 6.81121 17.7601 6.25122 17.0001 6.31122H16.9601C15.6201 6.42122 13.5901 7.11123 12.4501 7.82123L12.3401 7.89124C12.1601 8.00124 11.8501 8.00124 11.6601 7.89124L11.5001 7.79123C10.3701 7.08123 8.34012 6.41121 7.00012 6.30121C6.24012 6.24121 5.62012 6.81123 5.62012 7.57123V15.2712C5.62012 15.8812 6.1201 16.4612 6.7301 16.5312L6.9101 16.5612C8.2901 16.7412 10.4301 17.4512 11.6501 18.1212L11.6801 18.1312C11.8501 18.2312 12.1301 18.2312 12.2901 18.1312C13.5101 17.4512 15.6601 16.7512 17.0501 16.5612L17.2601 16.5312C17.8801 16.4612 18.3801 15.8912 18.3801 15.2712Z" stroke="#1D5DE5" stroke-width="1.5" stroke-linecap="round" stroke-linejoin="round"/>
<path d="M12 8.10156V17.6616" stroke="#1D5DE5" stroke-width="1.5" stroke-linecap="round" stroke-linejoin="round"/>
</svg>
