<svg width="40" height="40" viewBox="0 0 40 40" fill="none" xmlns="http://www.w3.org/2000/svg">
<path d="M36.1 17.3989L34.4666 24.3655C33.0666 30.3822 30.3 32.8155 25.1 32.3155C24.2666 32.2489 23.3666 32.0989 22.4 31.8655L19.6 31.1989C12.65 29.5489 10.5 26.1155 12.1333 19.1489L13.7666 12.1655C14.1 10.7489 14.5 9.51554 15 8.49887C16.95 4.46554 20.2666 3.38221 25.8333 4.69887L28.6166 5.34887C35.6 6.98221 37.7333 10.4322 36.1 17.3989Z" stroke="#2495E5" stroke-width="1.5" stroke-linecap="round" stroke-linejoin="round"/>
<path d="M25.1001 32.3167C24.0667 33.0167 22.7667 33.6 21.1834 34.1167L18.5501 34.9833C11.9334 37.1167 8.45008 35.3333 6.30008 28.7167L4.16675 22.1333C2.03341 15.5167 3.80008 12.0167 10.4167 9.88333L13.0501 9.01667C13.7334 8.8 14.3834 8.61667 15.0001 8.5C14.5001 9.51667 14.1001 10.75 13.7667 12.1667L12.1334 19.15C10.5001 26.1167 12.6501 29.55 19.6001 31.2L22.4001 31.8667C23.3667 32.1 24.2667 32.25 25.1001 32.3167Z" stroke="#2495E5" stroke-width="1.5" stroke-linecap="round" stroke-linejoin="round"/>
</svg>
