<svg width="32" height="32" viewBox="0 0 32 32" fill="none" xmlns="http://www.w3.org/2000/svg">
<path d="M29.3337 12.332H2.66699C2.12033 12.332 1.66699 11.8787 1.66699 11.332C1.66699 10.7854 2.12033 10.332 2.66699 10.332H29.3337C29.8803 10.332 30.3337 10.7854 30.3337 11.332C30.3337 11.8787 29.8803 12.332 29.3337 12.332Z" fill="#FFAD4F"/>
<path d="M10.6667 23H8C7.45333 23 7 22.5467 7 22C7 21.4533 7.45333 21 8 21H10.6667C11.2133 21 11.6667 21.4533 11.6667 22C11.6667 22.5467 11.2133 23 10.6667 23Z" fill="#FFAD4F"/>
<path d="M19.3333 23H14C13.4533 23 13 22.5467 13 22C13 21.4533 13.4533 21 14 21H19.3333C19.88 21 20.3333 21.4533 20.3333 22C20.3333 22.5467 19.88 23 19.3333 23Z" fill="#FFAD4F"/>
<path d="M23.4137 28.3346H8.58699C3.28033 28.3346 1.66699 26.7346 1.66699 21.4813V10.5213C1.66699 5.26797 3.28033 3.66797 8.58699 3.66797H23.4003C28.707 3.66797 30.3203 5.26797 30.3203 10.5213V21.468C30.3337 26.7346 28.7203 28.3346 23.4137 28.3346ZM8.58699 5.66797C4.40033 5.66797 3.66699 6.38797 3.66699 10.5213V21.468C3.66699 25.6013 4.40033 26.3213 8.58699 26.3213H23.4003C27.587 26.3213 28.3203 25.6013 28.3203 21.468V10.5213C28.3203 6.38797 27.587 5.66797 23.4003 5.66797H8.58699Z" fill="#FFAD4F"/>
</svg>
