<svg width="40" height="40" viewBox="0 0 40 40" fill="none" xmlns="http://www.w3.org/2000/svg">
<path d="M9.10008 30.818V25.9513C9.10008 24.3346 10.3667 22.8846 12.1667 22.8846C13.7834 22.8846 15.2334 24.1513 15.2334 25.9513V30.6346C15.2334 33.8846 12.5334 36.5846 9.28341 36.5846C6.03341 36.5846 3.33341 33.868 3.33341 30.6346V20.368C3.15008 11.0013 10.5501 3.41797 19.9167 3.41797C29.2834 3.41797 36.6667 11.0013 36.6667 20.1846V30.4513C36.6667 33.7013 33.9667 36.4013 30.7167 36.4013C27.4667 36.4013 24.7667 33.7013 24.7667 30.4513V25.768C24.7667 24.1513 26.0334 22.7013 27.8334 22.7013C29.4501 22.7013 30.9001 23.968 30.9001 25.768V30.818" stroke="#9F4AFA" stroke-width="1.5" stroke-linecap="round" stroke-linejoin="round"/>
</svg>
