<svg width="24" height="24" viewBox="0 0 24 24" fill="none" xmlns="http://www.w3.org/2000/svg">
<path d="M17.0899 2.82129C16.1702 2.06487 15.0933 1.52332 13.9376 1.23613C12.7819 0.948948 11.5767 0.923378 10.4099 1.16129C8.85632 1.47511 7.43093 2.24336 6.31462 3.36857C5.19832 4.49378 4.44141 5.92522 4.13994 7.48129C3.91979 8.64801 3.95979 9.84894 4.2571 10.9984C4.55441 12.1479 5.1017 13.2176 5.85994 14.1313C6.56363 14.9254 6.96698 15.9408 6.99994 17.0013V20.0013C6.99994 20.7969 7.31601 21.56 7.87862 22.1226C8.44123 22.6852 9.20429 23.0013 9.99994 23.0013H13.9999C14.7956 23.0013 15.5587 22.6852 16.1213 22.1226C16.6839 21.56 16.9999 20.7969 16.9999 20.0013V17.1913C17.0335 16.0205 17.4637 14.8957 18.2199 14.0013C19.5451 12.3621 20.1697 10.2661 19.9581 8.16892C19.7465 6.07172 18.7158 4.14278 17.0899 2.80129V2.82129ZM14.9999 20.0013C14.9999 20.2665 14.8946 20.5209 14.707 20.7084C14.5195 20.8959 14.2652 21.0013 13.9999 21.0013H9.99994C9.73473 21.0013 9.48037 20.8959 9.29284 20.7084C9.1053 20.5209 8.99994 20.2665 8.99994 20.0013V19.0013H14.9999V20.0013ZM16.6699 12.7613C15.6644 13.9539 15.0778 15.4433 14.9999 17.0013H12.9999V14.0013C12.9999 13.7361 12.8946 13.4817 12.707 13.2942C12.5195 13.1066 12.2652 13.0013 11.9999 13.0013C11.7347 13.0013 11.4804 13.1066 11.2928 13.2942C11.1053 13.4817 10.9999 13.7361 10.9999 14.0013V17.0013H8.99994C8.97356 15.4694 8.40689 13.996 7.39994 12.8413C6.73558 12.0453 6.28883 11.0907 6.10325 10.0706C5.91767 9.05056 5.99959 7.9998 6.34103 7.02082C6.68247 6.04183 7.27176 5.16803 8.05146 4.48461C8.83116 3.8012 9.77465 3.33149 10.7899 3.12129C11.6625 2.94163 12.5641 2.95853 13.4293 3.17076C14.2945 3.38299 15.1016 3.78521 15.792 4.34824C16.4824 4.91127 17.0387 5.62097 17.4206 6.42581C17.8025 7.23065 18.0004 8.11043 17.9999 9.00129C18.0073 10.3712 17.537 11.7008 16.6699 12.7613Z" fill="#FF9B29"/>
</svg>
