<svg width="16" height="16" viewBox="0 0 16 16" fill="none" xmlns="http://www.w3.org/2000/svg">
<path d="M5.59326 12.3284V5.55511C5.59326 5.28844 5.67326 5.02844 5.81993 4.80844L7.63993 2.10177C7.92659 1.66844 8.63993 1.36177 9.24659 1.58844C9.89993 1.80844 10.3333 2.54177 10.1933 3.19511L9.8466 5.37511C9.81993 5.57511 9.87326 5.75511 9.98659 5.89511C10.0999 6.02177 10.2666 6.10177 10.4466 6.10177H13.1866C13.7133 6.10177 14.1666 6.31511 14.4333 6.68844C14.6866 7.04844 14.7333 7.51511 14.5666 7.98844L12.9266 12.9818C12.7199 13.8084 11.8199 14.4818 10.9266 14.4818H8.32659C7.87993 14.4818 7.25326 14.3284 6.96659 14.0418L6.11326 13.3818C5.78659 13.1351 5.59326 12.7418 5.59326 12.3284Z" fill="#FB8600"/>
<path d="M3.4735 4.25391H2.78683C1.7535 4.25391 1.3335 4.65391 1.3335 5.64057V12.3472C1.3335 13.3339 1.7535 13.7339 2.78683 13.7339H3.4735C4.50683 13.7339 4.92683 13.3339 4.92683 12.3472V5.64057C4.92683 4.65391 4.50683 4.25391 3.4735 4.25391Z" fill="#FB8600"/>
</svg>
