<svg width="32" height="32" viewBox="0 0 32 32" fill="none" xmlns="http://www.w3.org/2000/svg">
<path d="M19.9997 30.3346H11.9997C6.11967 30.3346 4.33301 28.548 4.33301 22.668V9.33463C4.33301 3.45464 6.11967 1.66797 11.9997 1.66797H19.9997C25.8797 1.66797 27.6663 3.45464 27.6663 9.33463V22.668C27.6663 28.548 25.8797 30.3346 19.9997 30.3346ZM11.9997 3.66797C7.22634 3.66797 6.33301 4.57464 6.33301 9.33463V22.668C6.33301 27.428 7.22634 28.3346 11.9997 28.3346H19.9997C24.773 28.3346 25.6663 27.428 25.6663 22.668V9.33463C25.6663 4.57464 24.773 3.66797 19.9997 3.66797H11.9997Z" fill="#EB6F62"/>
<path d="M18.6663 8.33203H13.333C12.7863 8.33203 12.333 7.8787 12.333 7.33203C12.333 6.78536 12.7863 6.33203 13.333 6.33203H18.6663C19.213 6.33203 19.6663 6.78536 19.6663 7.33203C19.6663 7.8787 19.213 8.33203 18.6663 8.33203Z" fill="#EB6F62"/>
<path d="M16.0003 26.481C14.3069 26.481 12.9336 25.1077 12.9336 23.4143C12.9336 21.721 14.3069 20.3477 16.0003 20.3477C17.6936 20.3477 19.0669 21.721 19.0669 23.4143C19.0669 25.1077 17.6936 26.481 16.0003 26.481ZM16.0003 22.3343C15.4136 22.3343 14.9336 22.8143 14.9336 23.401C14.9336 23.9877 15.4136 24.4677 16.0003 24.4677C16.5869 24.4677 17.0669 23.9877 17.0669 23.401C17.0669 22.8143 16.5869 22.3343 16.0003 22.3343Z" fill="#EB6F62"/>
</svg>
