<svg width="40" height="40" viewBox="0 0 40 40" fill="none" xmlns="http://www.w3.org/2000/svg">
<path d="M15.2663 18.1154C15.0996 18.0987 14.8996 18.0987 14.7163 18.1154C10.7496 17.982 7.59961 14.732 7.59961 10.732C7.59961 6.6487 10.8996 3.33203 14.9996 3.33203C19.0829 3.33203 22.3996 6.6487 22.3996 10.732C22.3829 14.732 19.2329 17.982 15.2663 18.1154Z" stroke="#FF9B29" stroke-width="1.5" stroke-linecap="round" stroke-linejoin="round"/>
<path d="M27.3505 6.66797C30.5838 6.66797 33.1838 9.28464 33.1838 12.5013C33.1838 15.6513 30.6838 18.218 27.5671 18.3346C27.4338 18.318 27.2838 18.318 27.1338 18.3346" stroke="#FF9B29" stroke-width="1.5" stroke-linecap="round" stroke-linejoin="round"/>
<path d="M6.9332 24.268C2.89987 26.968 2.89987 31.368 6.9332 34.0513C11.5165 37.118 19.0332 37.118 23.6165 34.0513C27.6499 31.3513 27.6499 26.9513 23.6165 24.268C19.0499 21.218 11.5332 21.218 6.9332 24.268Z" stroke="#FF9B29" stroke-width="1.5" stroke-linecap="round" stroke-linejoin="round"/>
<path d="M30.5664 33.332C31.7664 33.082 32.8997 32.5987 33.8331 31.882C36.4331 29.932 36.4331 26.7154 33.8331 24.7654C32.9164 24.0654 31.7997 23.5987 30.6164 23.332" stroke="#FF9B29" stroke-width="1.5" stroke-linecap="round" stroke-linejoin="round"/>
</svg>
