<svg width="40" height="40" viewBox="0 0 40 40" fill="none" xmlns="http://www.w3.org/2000/svg">
<path d="M23.7699 26.6641H15.4365" stroke="#2ECC71" stroke-width="1.5" stroke-miterlimit="10" stroke-linecap="round" stroke-linejoin="round"/>
<path d="M21.0999 4.19559L21.0499 4.31226L16.2166 15.5289H11.4666C10.3333 15.5289 9.24993 15.7623 8.2666 16.1789L11.1833 9.21226L11.2499 9.04559L11.3666 8.77892C11.3999 8.67892 11.4333 8.57892 11.4833 8.49559C13.6666 3.44559 16.1333 2.29559 21.0999 4.19559Z" stroke="#2ECC71" stroke-width="1.5" stroke-linecap="round" stroke-linejoin="round"/>
<path d="M30.0844 15.862C29.3344 15.6286 28.5344 15.5286 27.7344 15.5286H16.2178L21.0511 4.31198L21.1011 4.19531C21.3511 4.27865 21.5844 4.39531 21.8344 4.49531L25.5178 6.04531C27.5678 6.89531 29.0011 7.77865 29.8678 8.84531C30.0344 9.04531 30.1678 9.22865 30.2844 9.44531C30.4344 9.67865 30.5511 9.91198 30.6178 10.162C30.6844 10.312 30.7344 10.462 30.7678 10.5953C31.2178 11.9953 30.9511 13.712 30.0844 15.862Z" stroke="#2ECC71" stroke-width="1.5" stroke-linecap="round" stroke-linejoin="round"/>
<path d="M35.8692 23.6646V26.9146C35.8692 27.2479 35.8525 27.5813 35.8359 27.9146C35.5192 33.7313 32.2692 36.6646 26.1025 36.6646H13.1025C12.7025 36.6646 12.3025 36.6313 11.9192 36.5813C6.61921 36.2313 3.78587 33.3979 3.43587 28.0979C3.38587 27.7146 3.35254 27.3146 3.35254 26.9146V23.6646C3.35254 20.3146 5.38587 17.4313 8.28587 16.1813C9.28587 15.7646 10.3525 15.5312 11.4859 15.5312H27.7525C28.5692 15.5312 29.3692 15.6479 30.1025 15.8646C33.4192 16.8813 35.8692 19.9813 35.8692 23.6646Z" stroke="#2ECC71" stroke-width="1.5" stroke-linecap="round" stroke-linejoin="round"/>
<path d="M11.183 9.21484L8.26634 16.1815C5.36634 17.4315 3.33301 20.3148 3.33301 23.6648V18.7815C3.33301 14.0482 6.69967 10.0982 11.183 9.21484Z" stroke="#2ECC71" stroke-width="1.5" stroke-linecap="round" stroke-linejoin="round"/>
<path d="M35.8643 18.7807V23.6641C35.8643 19.9974 33.431 16.8807 30.0977 15.8807C30.9643 13.7141 31.2143 12.0141 30.7977 10.5974C30.7643 10.4474 30.7143 10.2974 30.6477 10.1641C33.7477 11.7641 35.8643 15.0474 35.8643 18.7807Z" stroke="#2ECC71" stroke-width="1.5" stroke-linecap="round" stroke-linejoin="round"/>
</svg>
