<svg width="16" height="16" viewBox="0 0 16 16" fill="none" xmlns="http://www.w3.org/2000/svg">
<path d="M7.29378 4.05281C7.52762 4.01696 7.76388 3.99913 8.00045 3.99947C10.1204 3.99947 12.1138 5.52614 13.2738 7.99947C13.0964 8.37587 12.896 8.741 12.6738 9.09281C12.6032 9.20201 12.5662 9.32946 12.5671 9.45947C12.5686 9.60496 12.6176 9.74598 12.7068 9.86099C12.7959 9.976 12.9202 10.0587 13.0607 10.0965C13.2012 10.1343 13.3502 10.125 13.485 10.0702C13.6197 10.0154 13.7329 9.91794 13.8071 9.79281C14.1177 9.30476 14.3875 8.79191 14.6138 8.25947C14.6495 8.17629 14.668 8.08669 14.668 7.99614C14.668 7.90559 14.6495 7.81599 14.6138 7.73281C13.2671 4.60614 10.7338 2.66614 8.00045 2.66614C7.68756 2.66456 7.37517 2.69134 7.06712 2.74614C6.97957 2.76102 6.89581 2.793 6.82062 2.84026C6.74543 2.88751 6.68029 2.94911 6.62891 3.02154C6.57752 3.09397 6.54091 3.17581 6.52116 3.26239C6.50141 3.34897 6.4989 3.43859 6.51378 3.52614C6.52867 3.61369 6.56065 3.69745 6.6079 3.77263C6.65515 3.84782 6.71675 3.91297 6.78918 3.96435C6.86161 4.01573 6.94345 4.05234 7.03003 4.0721C7.11661 4.09185 7.20623 4.09436 7.29378 4.07947V4.05281ZM2.47378 1.52614C2.41162 1.46398 2.33783 1.41467 2.25662 1.38103C2.1754 1.34739 2.08836 1.33008 2.00045 1.33008C1.91254 1.33008 1.8255 1.34739 1.74428 1.38103C1.66307 1.41467 1.58927 1.46398 1.52712 1.52614C1.40158 1.65167 1.33105 1.82194 1.33105 1.99947C1.33105 2.17701 1.40158 2.34727 1.52712 2.47281L3.59378 4.53281C2.65083 5.44049 1.90035 6.5288 1.38712 7.73281C1.35041 7.81692 1.33146 7.9077 1.33146 7.99947C1.33146 8.09124 1.35041 8.18203 1.38712 8.26614C2.73378 11.3928 5.26712 13.3328 8.00045 13.3328C9.19852 13.3245 10.3683 12.9678 11.3671 12.3061L13.5271 14.4728C13.5891 14.5353 13.6628 14.5849 13.7441 14.6187C13.8253 14.6526 13.9124 14.67 14.0004 14.67C14.0885 14.67 14.1756 14.6526 14.2568 14.6187C14.3381 14.5849 14.4118 14.5353 14.4738 14.4728C14.5363 14.4108 14.5859 14.3371 14.6197 14.2559C14.6536 14.1746 14.671 14.0875 14.671 13.9995C14.671 13.9115 14.6536 13.8243 14.6197 13.7431C14.5859 13.6618 14.5363 13.5881 14.4738 13.5261L2.47378 1.52614ZM6.71378 7.65281L8.34712 9.28614C8.23444 9.31845 8.11766 9.33417 8.00045 9.33281C7.64683 9.33281 7.30769 9.19233 7.05764 8.94228C6.80759 8.69223 6.66712 8.35309 6.66712 7.99947C6.66575 7.88226 6.68147 7.76548 6.71378 7.65281ZM8.00045 11.9995C5.88045 11.9995 3.88712 10.4728 2.73378 7.99947C3.16451 7.04864 3.77583 6.19052 4.53378 5.47281L5.71378 6.66614C5.43661 7.172 5.33094 7.7541 5.41262 8.32511C5.4943 8.89612 5.75893 9.42525 6.1668 9.83312C6.57467 10.241 7.1038 10.5056 7.67481 10.5873C8.24582 10.669 8.82792 10.5633 9.33378 10.2861L10.3938 11.3328C9.66784 11.7601 8.84273 11.9899 8.00045 11.9995Z" fill="white"/>
</svg>
