<svg width="24" height="24" viewBox="0 0 24 24" fill="none" xmlns="http://www.w3.org/2000/svg">
<path d="M12 3.15039C14.6124 3.15039 17.1176 4.18792 18.9648 6.03516C20.8121 7.88239 21.8496 10.3876 21.8496 13V20C21.8496 20.2254 21.76 20.4412 21.6006 20.6006C21.4412 20.76 21.2254 20.8496 21 20.8496H18C17.2441 20.8496 16.5189 20.5501 15.9844 20.0156C15.4499 19.4811 15.1504 18.7559 15.1504 18V16C15.1504 15.2441 15.4499 14.5189 15.9844 13.9844C16.5189 13.4499 17.2441 13.1504 18 13.1504H20.1504V13C20.1504 10.8385 19.2911 8.76573 17.7627 7.2373C16.2343 5.70888 14.1615 4.84961 12 4.84961C9.83849 4.84961 7.76573 5.70888 6.2373 7.2373C4.70888 8.76573 3.84961 10.8385 3.84961 13V13.1504H6C6.75587 13.1504 7.48115 13.4499 8.01562 13.9844C8.5501 14.5189 8.84961 15.2441 8.84961 16V18C8.84961 18.7559 8.5501 19.4811 8.01562 20.0156C7.48115 20.5501 6.75587 20.8496 6 20.8496H3C2.77457 20.8496 2.55882 20.76 2.39941 20.6006C2.24001 20.4412 2.15039 20.2254 2.15039 20V13C2.15039 10.3876 3.18792 7.88239 5.03516 6.03516C5.94981 5.1205 7.03541 4.39442 8.23047 3.89941C9.42551 3.40442 10.7065 3.15039 12 3.15039ZM3.84961 19.1504H6C6.305 19.1504 6.59781 19.0291 6.81348 18.8135C7.02914 18.5978 7.15039 18.305 7.15039 18V16C7.15039 15.695 7.02914 15.4022 6.81348 15.1865C6.59781 14.9709 6.305 14.8496 6 14.8496H3.84961V19.1504ZM18 14.8496C17.695 14.8496 17.4022 14.9709 17.1865 15.1865C16.9709 15.4022 16.8496 15.695 16.8496 16V18C16.8496 18.305 16.9709 18.5978 17.1865 18.8135C17.4022 19.0291 17.695 19.1504 18 19.1504H20.1504V14.8496H18Z" fill="#1D5DE5" stroke="#E8EFFF" stroke-width="0.3"/>
</svg>
