<svg width="182" height="182" viewBox="0 0 182 182" fill="none" xmlns="http://www.w3.org/2000/svg">
<g filter="url(#filter0_d_10749_13681)">
<rect x="40" y="34" width="102" height="102" rx="24" fill="url(#paint0_linear_10749_13681)"/>
<g clip-path="url(#clip0_10749_13681)">
<path d="M100.66 76.1547L104.933 71.7918L100.66 67.4289L90.3582 56.9102H56.1367L83.5491 84.9004L56.1367 112.891H90.3582L104.933 98.009L92.0947 84.9004L100.66 76.1547ZM96.387 98.009L87.8609 106.715H70.7501L87.8414 89.2633L96.387 98.009ZM70.7501 63.0859H87.8609L96.387 71.7918L87.8219 80.5375L70.7501 63.0859Z" fill="url(#paint1_linear_10749_13681)"/>
<path opacity="0.35" d="M56.6055 112.691L83.8227 84.9004L56.6055 57.1094H90.2807L104.66 71.7918L91.822 84.9004L104.66 98.009L90.2807 112.691H56.6055ZM70.2824 106.914H87.9394L96.6607 98.009L87.8224 88.9844L70.2824 106.914ZM87.8224 80.8164L96.6607 71.7918L87.9394 62.8867H70.2824L87.8224 80.8164Z" fill="url(#paint2_linear_10749_13681)"/>
<path d="M114.863 69.6211L99.8789 84.9211L114.863 100.221L129.847 84.9211L114.863 69.6211ZM108.444 84.9012L114.863 78.3469L121.282 84.9012L114.863 91.4555L108.444 84.9012Z" fill="url(#paint3_linear_10749_13681)"/>
<path opacity="0.35" d="M100.152 84.8996L114.863 69.8984L129.555 84.8996L114.863 99.9207L100.152 84.8996ZM108.171 84.8996L114.863 91.7328L121.555 84.8996L114.863 78.0664L108.171 84.8996Z" fill="url(#paint4_linear_10749_13681)"/>
<path opacity="0.1" d="M94.69 82.2691L90.4172 77.9062L87.8418 80.5359L92.1146 84.8988L96.3874 80.5359L94.69 82.2691Z" fill="#2A44A0"/>
<path opacity="0.1" d="M80.9533 87.5906L85.2261 91.9137L87.8015 89.284L83.5286 84.9609L79.2363 89.284L79.2558 89.3039L80.9533 87.5906Z" fill="#2A44A0"/>
</g>
</g>
<defs>
<filter id="filter0_d_10749_13681" x="0" y="0" width="182" height="182" filterUnits="userSpaceOnUse" color-interpolation-filters="sRGB">
<feFlood flood-opacity="0" result="BackgroundImageFix"/>
<feColorMatrix in="SourceAlpha" type="matrix" values="0 0 0 0 0 0 0 0 0 0 0 0 0 0 0 0 0 0 127 0" result="hardAlpha"/>
<feMorphology radius="16" operator="dilate" in="SourceAlpha" result="effect1_dropShadow_10749_13681"/>
<feOffset dy="6"/>
<feGaussianBlur stdDeviation="12"/>
<feComposite in2="hardAlpha" operator="out"/>
<feColorMatrix type="matrix" values="0 0 0 0 0.115168 0 0 0 0 0.363192 0 0 0 0 0.8984 0 0 0 0.2 0"/>
<feBlend mode="normal" in2="BackgroundImageFix" result="effect1_dropShadow_10749_13681"/>
<feBlend mode="normal" in="SourceGraphic" in2="effect1_dropShadow_10749_13681" result="shape"/>
</filter>
<linearGradient id="paint0_linear_10749_13681" x1="91" y1="34" x2="91" y2="136" gradientUnits="userSpaceOnUse">
<stop stop-color="#52B7FF"/>
<stop offset="1" stop-color="#1D5DE5"/>
</linearGradient>
<linearGradient id="paint1_linear_10749_13681" x1="56.1367" y1="84.9004" x2="104.942" y2="84.9004" gradientUnits="userSpaceOnUse">
<stop stop-color="white"/>
<stop offset="0.1339" stop-color="#F3F6FD"/>
<stop offset="0.4106" stop-color="#E0E9FB"/>
<stop offset="0.6957" stop-color="#D5E1F9"/>
<stop offset="0.9994" stop-color="#D1DEF9"/>
</linearGradient>
<linearGradient id="paint2_linear_10749_13681" x1="56.6082" y1="84.9004" x2="104.666" y2="84.9004" gradientUnits="userSpaceOnUse">
<stop stop-color="white"/>
<stop offset="0.3911" stop-color="white" stop-opacity="0"/>
</linearGradient>
<linearGradient id="paint3_linear_10749_13681" x1="99.8854" y1="84.9062" x2="129.835" y2="84.9062" gradientUnits="userSpaceOnUse">
<stop stop-color="white"/>
<stop offset="0.1339" stop-color="#F3F6FD"/>
<stop offset="0.4106" stop-color="#E0E9FB"/>
<stop offset="0.6957" stop-color="#D5E1F9"/>
<stop offset="0.9994" stop-color="#D1DEF9"/>
</linearGradient>
<linearGradient id="paint4_linear_10749_13681" x1="100.162" y1="84.9047" x2="129.559" y2="84.9047" gradientUnits="userSpaceOnUse">
<stop stop-color="white"/>
<stop offset="0.3911" stop-color="white" stop-opacity="0"/>
</linearGradient>
<clipPath id="clip0_10749_13681">
<rect width="75.2449" height="55.9805" fill="white" transform="translate(56.1367 56.9102)"/>
</clipPath>
</defs>
</svg>
