<svg width="24" height="24" viewBox="0 0 24 24" fill="none" xmlns="http://www.w3.org/2000/svg">
<path d="M18.3599 22.7494H5.58987C4.06987 22.7494 2.67987 21.9794 1.87987 20.6794C1.07987 19.3794 1.00987 17.7994 1.68987 16.4294L3.40987 12.9794C3.96987 11.8594 4.86987 11.1594 5.87987 11.0494C6.88987 10.9394 7.91987 11.4394 8.69987 12.4094L8.91987 12.6894C9.35987 13.2294 9.86987 13.5194 10.3699 13.4694C10.8699 13.4294 11.3299 13.0694 11.6699 12.4594L13.5599 9.04944C14.3399 7.63944 15.3799 6.90944 16.5099 6.95944C17.6299 7.01944 18.5899 7.85944 19.2299 9.33944L22.3599 16.6494C22.9399 17.9994 22.7999 19.5394 21.9899 20.7694C21.1899 22.0194 19.8299 22.7494 18.3599 22.7494ZM6.15987 12.5494C6.11987 12.5494 6.07987 12.5494 6.03987 12.5594C5.53987 12.6094 5.07987 13.0094 4.74987 13.6594L3.02987 17.1094C2.57987 17.9994 2.62987 19.0494 3.14987 19.8994C3.66987 20.7494 4.58987 21.2594 5.58987 21.2594H18.3499C19.3299 21.2594 20.1999 20.7894 20.7399 19.9694C21.2799 19.1494 21.3699 18.1694 20.9799 17.2694L17.8499 9.95944C17.4699 9.05944 16.9399 8.50944 16.4299 8.48944C15.9599 8.45944 15.3499 8.95944 14.8699 9.80944L12.9799 13.2194C12.3999 14.2594 11.4899 14.9094 10.4999 14.9994C9.50987 15.0794 8.49987 14.5994 7.74987 13.6594L7.52987 13.3794C7.10987 12.8294 6.62987 12.5494 6.15987 12.5494Z" fill="#151E2F"/>
<path d="M6.96973 8.75C4.90973 8.75 3.21973 7.07 3.21973 5C3.21973 2.93 4.89973 1.25 6.96973 1.25C9.03973 1.25 10.7197 2.93 10.7197 5C10.7197 7.07 9.03973 8.75 6.96973 8.75ZM6.96973 2.75C5.72973 2.75 4.71973 3.76 4.71973 5C4.71973 6.24 5.72973 7.25 6.96973 7.25C8.20973 7.25 9.21973 6.24 9.21973 5C9.21973 3.76 8.20973 2.75 6.96973 2.75Z" fill="#151E2F"/>
</svg>
