<svg width="24" height="24" viewBox="0 0 24 24" fill="none" xmlns="http://www.w3.org/2000/svg">
<path d="M12 2C9.38 2 7.25 4.13 7.25 6.75C7.25 9.32 9.26 11.4 11.88 11.49C11.96 11.48 12.04 11.48 12.1 11.49C12.12 11.49 12.13 11.49 12.15 11.49C12.16 11.49 12.16 11.49 12.17 11.49C14.73 11.4 16.74 9.32 16.75 6.75C16.75 4.13 14.62 2 12 2Z" fill="#E74C3C"/>
<path d="M17.0809 14.1509C14.2909 12.2909 9.74094 12.2909 6.93094 14.1509C5.66094 15.0009 4.96094 16.1509 4.96094 17.3809C4.96094 18.6109 5.66094 19.7509 6.92094 20.5909C8.32094 21.5309 10.1609 22.0009 12.0009 22.0009C13.8409 22.0009 15.6809 21.5309 17.0809 20.5909C18.3409 19.7409 19.0409 18.6009 19.0409 17.3609C19.0309 16.1309 18.3409 14.9909 17.0809 14.1509ZM13.9409 18.2609C14.2309 18.5509 14.2309 19.0309 13.9409 19.3209C13.7909 19.4709 13.6009 19.5409 13.4109 19.5409C13.2209 19.5409 13.0309 19.4709 12.8809 19.3209L12.0009 18.4409L11.1209 19.3209C10.9709 19.4709 10.7809 19.5409 10.5909 19.5409C10.4009 19.5409 10.2109 19.4709 10.0609 19.3209C9.77094 19.0309 9.77094 18.5509 10.0609 18.2609L10.9409 17.3809L10.0609 16.5009C9.77094 16.2109 9.77094 15.7309 10.0609 15.4409C10.3509 15.1509 10.8309 15.1509 11.1209 15.4409L12.0009 16.3209L12.8809 15.4409C13.1709 15.1509 13.6509 15.1509 13.9409 15.4409C14.2309 15.7309 14.2309 16.2109 13.9409 16.5009L13.0609 17.3809L13.9409 18.2609Z" fill="#E74C3C"/>
</svg>
