<svg width="40" height="40" viewBox="0 0 40 40" fill="none" xmlns="http://www.w3.org/2000/svg">
<path d="M39.4046 24.8376C36.7412 35.5454 25.8703 42.068 15.1624 39.4046C4.45456 36.7412 -2.068 25.8703 0.595383 15.1624C3.25876 4.45456 14.1297 -2.068 24.8376 0.595383C35.5454 3.25876 42.068 14.1297 39.4046 24.8376Z" fill="#F7931A"/>
<path d="M28.8594 17.1718C29.2399 14.5084 27.2288 13.0952 24.4567 12.1168L25.3807 8.52941L23.2065 7.98586L22.2825 11.4646C21.6846 11.3015 21.0867 11.1928 20.5431 11.0297L21.4128 7.49667L19.2386 6.95312L18.3146 10.5405C17.8254 10.4318 17.3906 10.3231 16.9014 10.2144L13.8575 9.45344L13.2596 11.7907C13.2596 11.7907 14.8903 12.1712 14.8359 12.1712C15.7056 12.3886 15.8686 12.9865 15.8686 13.4213L14.8359 17.5523L13.4227 23.3682C13.314 23.64 13.0422 24.0205 12.3899 23.9118C12.3899 23.9661 10.8137 23.5313 10.8137 23.5313L9.72656 26.0316L12.6074 26.7382C13.1509 26.8469 13.6401 27.01 14.1836 27.1187L13.2596 30.7605L15.4338 31.304L16.3578 27.7166C16.9557 27.8797 17.5536 28.0427 18.0972 28.1514L17.2275 31.7389L19.4017 32.2824L20.3257 28.6406C24.0762 29.3473 26.9026 29.0755 28.0441 25.6511C29.0225 22.9334 27.9897 21.3571 26.033 20.3244C27.4462 20.0526 28.5333 19.1286 28.8594 17.1718ZM23.8044 24.1836C23.1522 26.9013 18.532 25.4337 17.0644 25.0532L18.2602 20.2157C19.7278 20.5962 24.511 21.3571 23.8044 24.1836ZM24.511 17.1175C23.9131 19.6178 20.054 18.3133 18.8038 18.0415L19.8909 13.6388C21.141 13.9649 25.1633 14.5084 24.511 17.1175Z" fill="white"/>
</svg>
