<svg width="20" height="20" viewBox="0 0 20 20" fill="none" xmlns="http://www.w3.org/2000/svg">
<path d="M9.24935 18.9596H5.74935C2.49102 18.9596 1.04102 17.5096 1.04102 14.2513V10.7513C1.04102 7.49297 2.49102 6.04297 5.74935 6.04297H9.24935C12.5077 6.04297 13.9577 7.49297 13.9577 10.7513V14.2513C13.9577 17.5096 12.5077 18.9596 9.24935 18.9596ZM5.74935 7.29297C3.16602 7.29297 2.29102 8.16797 2.29102 10.7513V14.2513C2.29102 16.8346 3.16602 17.7096 5.74935 17.7096H9.24935C11.8327 17.7096 12.7077 16.8346 12.7077 14.2513V10.7513C12.7077 8.16797 11.8327 7.29297 9.24935 7.29297H5.74935V7.29297Z" fill="#28A6FF"/>
<path d="M14.2493 13.9596H13.3327C12.991 13.9596 12.7077 13.6763 12.7077 13.3346V10.7513C12.7077 8.16797 11.8327 7.29297 9.24935 7.29297H6.66602C6.32435 7.29297 6.04102 7.00964 6.04102 6.66797V5.7513C6.04102 2.49297 7.49102 1.04297 10.7493 1.04297H14.2493C17.5077 1.04297 18.9577 2.49297 18.9577 5.7513V9.2513C18.9577 12.5096 17.5077 13.9596 14.2493 13.9596ZM13.9577 12.7096H14.2493C16.8327 12.7096 17.7077 11.8346 17.7077 9.2513V5.7513C17.7077 3.16797 16.8327 2.29297 14.2493 2.29297H10.7493C8.16602 2.29297 7.29102 3.16797 7.29102 5.7513V6.04297H9.24935C12.5077 6.04297 13.9577 7.49297 13.9577 10.7513V12.7096Z" fill="#28A6FF"/>
</svg>
