<svg width="32" height="32" viewBox="0 0 32 32" fill="none" xmlns="http://www.w3.org/2000/svg">
<path d="M0 10C0 4.47715 4.47715 0 10 0H22C27.5228 0 32 4.47715 32 10V22C32 27.5228 27.5228 32 22 32H10C4.47715 32 0 27.5228 0 22V10Z" fill="white" fill-opacity="0.08"/>
<path d="M15.9993 16.8346C16.4596 16.8346 16.8327 16.4615 16.8327 16.0013C16.8327 15.5411 16.4596 15.168 15.9993 15.168C15.5391 15.168 15.166 15.5411 15.166 16.0013C15.166 16.4615 15.5391 16.8346 15.9993 16.8346Z" fill="#717F9A" stroke="#717F9A" stroke-width="1.66667"/>
<path d="M15.9993 10.9987C16.4596 10.9987 16.8327 10.6256 16.8327 10.1654C16.8327 9.70513 16.4596 9.33203 15.9993 9.33203C15.5391 9.33203 15.166 9.70513 15.166 10.1654C15.166 10.6256 15.5391 10.9987 15.9993 10.9987Z" fill="#717F9A" stroke="#717F9A" stroke-width="1.66667"/>
<path d="M15.9993 22.6667C16.4596 22.6667 16.8327 22.2936 16.8327 21.8333C16.8327 21.3731 16.4596 21 15.9993 21C15.5391 21 15.166 21.3731 15.166 21.8333C15.166 22.2936 15.5391 22.6667 15.9993 22.6667Z" fill="#717F9A" stroke="#717F9A" stroke-width="1.66667"/>
</svg>
