<svg width="17" height="17" viewBox="0 0 17 17" fill="none" xmlns="http://www.w3.org/2000/svg">
<g style="mix-blend-mode:plus-darker">
<path d="M-0.000976562 6.62598C-0.000976562 5.71289 0.170573 4.85791 0.513672 4.06104C0.856771 3.25863 1.33268 2.55306 1.94141 1.94434C2.55013 1.33561 3.25293 0.859701 4.0498 0.516602C4.85221 0.173503 5.70996 0.00195312 6.62305 0.00195312C7.53613 0.00195312 8.39111 0.173503 9.18799 0.516602C9.9904 0.859701 10.696 1.33561 11.3047 1.94434C11.9134 2.55306 12.3893 3.25863 12.7324 4.06104C13.0755 4.85791 13.2471 5.71289 13.2471 6.62598C13.2471 7.38411 13.1253 8.10352 12.8818 8.78418C12.6439 9.46484 12.3118 10.0819 11.8857 10.6353L15.9448 14.7192C16.0334 14.8078 16.0998 14.9102 16.144 15.0264C16.1938 15.1426 16.2188 15.2671 16.2188 15.3999C16.2188 15.5825 16.1772 15.7485 16.0942 15.8979C16.0168 16.0474 15.9061 16.1636 15.7622 16.2466C15.6183 16.3351 15.4523 16.3794 15.2642 16.3794C15.1313 16.3794 15.0041 16.3545 14.8823 16.3047C14.7661 16.2604 14.6582 16.1912 14.5586 16.0972L10.4746 12.0049C9.93229 12.3923 9.33464 12.6966 8.68164 12.918C8.02865 13.1393 7.34245 13.25 6.62305 13.25C5.70996 13.25 4.85221 13.0785 4.0498 12.7354C3.25293 12.3923 2.55013 11.9163 1.94141 11.3076C1.33268 10.6989 0.856771 9.99609 0.513672 9.19922C0.170573 8.39681 -0.000976562 7.53906 -0.000976562 6.62598ZM1.41846 6.62598C1.41846 7.34538 1.55127 8.02051 1.81689 8.65137C2.08805 9.27669 2.46159 9.82731 2.9375 10.3032C3.41895 10.7791 3.97233 11.1527 4.59766 11.4238C5.22852 11.695 5.90365 11.8306 6.62305 11.8306C7.34245 11.8306 8.01481 11.695 8.64014 11.4238C9.271 11.1527 9.82438 10.7791 10.3003 10.3032C10.7762 9.82731 11.1497 9.27669 11.4209 8.65137C11.6921 8.02051 11.8276 7.34538 11.8276 6.62598C11.8276 5.90658 11.6921 5.23421 11.4209 4.60889C11.1497 3.97803 10.7762 3.42464 10.3003 2.94873C9.82438 2.46729 9.271 2.09375 8.64014 1.82812C8.01481 1.55697 7.34245 1.42139 6.62305 1.42139C5.90365 1.42139 5.22852 1.55697 4.59766 1.82812C3.97233 2.09375 3.41895 2.46729 2.9375 2.94873C2.46159 3.42464 2.08805 3.97803 1.81689 4.60889C1.55127 5.23421 1.41846 5.90658 1.41846 6.62598Z" fill="#717F9A"/>
</g>
</svg>
