<svg width="40" height="40" viewBox="0 0 40 40" fill="none" xmlns="http://www.w3.org/2000/svg">
<path d="M20 0C31.0326 0 40 8.96739 40 20C40 31.0326 31.0326 40 20 40C8.9674 40 0 31.0326 0 20C0 8.96739 8.91305 0 20 0Z" fill="#22925A"/>
<path d="M22.4457 17.3359V14.3468H29.2392V9.83594H10.7066V14.3468H17.5001V17.3359C11.9566 17.6077 7.82617 18.6946 7.82617 19.999C7.82617 21.3033 12.011 22.3903 17.5001 22.662V32.1729H22.4457V22.662C27.9892 22.3903 32.1197 21.3033 32.1197 19.999C32.1197 18.6946 27.9892 17.6077 22.4457 17.3359ZM22.4457 21.8468C22.2827 21.8468 21.5762 21.9012 20.0001 21.9012C18.7501 21.9012 17.8262 21.8468 17.5001 21.8468C12.6088 21.6294 8.96748 20.7599 8.96748 19.7816C8.96748 18.8033 12.6088 17.9338 17.5001 17.7164V21.0316C17.8262 21.0316 18.7501 21.0859 20.0001 21.0859C21.5218 21.0859 22.2827 21.0316 22.4457 21.0316V17.7164C27.337 17.9338 30.9783 18.8033 30.9783 19.7816C30.9783 20.8142 27.337 21.6294 22.4457 21.8468Z" fill="white"/>
</svg>
